<?xml version="1.0" standalone="no"?>
<!DOCTYPE svg PUBLIC "-//W3C//DTD SVG 20010904//EN"
 "http://www.w3.org/TR/2001/REC-SVG-20010904/DTD/svg10.dtd">
<svg version="1.1" xmlns="http://www.w3.org/2000/svg" width="700px" height="700px" viewBox="0 0 700 700" preserveAspectRatio="xMidYMid meet">
<g>
	<g>
		<path d="M438.311,430.828c0,0,83.721-8.25,94.525-9.758c9.123-1.305,11.723-5.199,11.057-14.676
			c-0.521-7.797-9.107-167.215-9.434-175.027c-0.322-7.828-3.246-10.426-10.773-10.426c-7.883,0-22.16,1.305-28.346,4.266
			c0.648,5.863,0.648,10.41,1.299,13.676c7.176-2.953,23.797-3.621,23.797-3.621l8.502,172.629H428.553L438.311,430.828z"/>
		<path d="M489.648,198.09c0.805,17.18,4.363,85.348,6.779,131.719c1.156,22.395,2.088,40.02,2.188,42.422
			c0.016,0.281,0.029,0.523,0.029,0.723c-13.799,1.156-41.777,3.785-63.031,7.949c-12.6-30.379-32.412-78.555-37.385-90.727v-71.07
			C428.607,202.895,449.99,198.191,489.648,198.09 M490.805,182.488c-44.332,0-69.102,5.199-108.211,27.383v83.438
			c0,0,30.635,74.617,43.684,105.926c22.16-6.539,68.314-10.27,74.951-10.789c8.162-0.637,13.699-3.25,13.049-16.934
			c-0.367-7.84-8.713-165.863-9.123-177.328C504.814,185.438,499.916,182.488,490.805,182.488L490.805,182.488z"/>
		<path d="M392.691,250.277c15-12.414,57.693-31.312,79.527-20.238c-24.432,1.652-58.342,13.703-80.176,31.594
			C392.354,256.434,392.691,250.277,392.691,250.277z"/>
		<path d="M393.018,284.793c14.998-12.371,57.693-31.254,79.527-20.195c-24.434,1.652-58.344,13.688-80.191,31.609
			C392.691,290.996,393.018,284.793,393.018,284.793z"/>
		<path d="M393.668,317.094c14.998-12.414,57.691-27.383,79.527-16.328c-22.922,1.543-54.121,8.805-75.939,24.434
			C395.941,322.617,393.668,317.094,393.668,317.094z"/>
		<path d="M405.008,349.562c18.994-10.477,52.115-19.66,70.461-10.324c-19.773,1.312-45.773,6.934-66.535,18.5
			C407.027,354.25,406.379,352.598,405.008,349.562z"/>
	</g>
	<path d="M349.985,657.645v31.309c257.152-68.281,295.298-228.637,294.65-608.789c-39.645,11.074-75.531,17.145-108.918,17.145
		c-68.723,0-126.91-25.684-185.718-86.25l0,0c0,0,0,26.867,0,39.758c10.775,10.594,28.699,23.457,28.699,23.457
		c48.188,35.086,99.215,51.664,157.02,51.664c24.703,0,51.168-2.977,80.176-9.168c-0.889,160.922-10.521,286.59-48.215,374.023
		c-34.207,79.328-91.658,128.789-188.98,161.047L349.985,657.645z"/>
	<path d="M450.711,556.637H349.985v-23.488h100.726c5.354,0,9.631-2.133,12.357-6.301c3.982-6.043,4.096-15.262,0.324-24.105
		c-15.492-36.07-86.658-202.992-87.365-204.699l-0.945-2.176v-122.5h-25.097v-23.492h48.582v141.176
		c8.504,19.973,71.889,168.613,86.393,202.438c6.949,16.246,6.086,33.543-2.316,46.242
		C475.58,550.461,463.943,556.637,450.711,556.637z"/>
	<path d="M452.01,513.137c-1.299-3.246-58.668-137.559-58.668-137.559h-43.343v35.082c1.482-0.312,2.996-0.535,4.562-0.535
		c10.973,0,19.871,8.926,19.871,19.871c0,11.016-8.898,19.883-19.871,19.883c-1.566,0-3.08-0.227-4.562-0.535v70.781
		c0,0,94.865,0,98.113,0S453.322,516.383,452.01,513.137z M365.648,492.91c-6.471,0-11.736-5.25-11.736-11.719
		s5.266-11.723,11.736-11.723c6.467,0,11.748,5.254,11.748,11.723S372.115,492.91,365.648,492.91z"/>
	<path d="M409.965,167.02c0,4.562-3.715,8.293-8.262,8.293h-51.718V147.93h51.718c4.547,0,8.262,3.727,8.262,8.289V167.02z"/>
</g>
<g>
	<g>
		<path d="M261.674,430.828c0,0-83.695-8.25-94.498-9.758c-9.139-1.305-11.752-5.199-11.102-14.676
			c0.537-7.812,9.139-167.23,9.463-175.027c0.324-7.828,3.264-10.426,10.748-10.426c7.881,0,22.145,1.305,28.344,4.266
			c-0.648,5.863-0.648,10.41-1.312,13.676c-7.16-2.953-23.783-3.621-23.783-3.621l-8.475,172.629h100.387L261.674,430.828z"/>
		<path d="M210.35,198.09c39.658,0.102,61.055,4.809,91.434,21.016v71.07c-5,12.172-24.787,60.336-37.369,90.727
			c-21.285-4.18-49.234-6.793-63.074-7.949c0.012-0.199,0.012-0.441,0.027-0.723c0.129-2.402,1.045-20.027,2.217-42.422
			C205.987,283.438,209.559,215.27,210.35,198.09 M209.219,182.488c-9.137,0-14.023,2.949-14.348,11.707
			c-0.424,11.469-8.77,169.492-9.139,177.332c-0.648,13.68,4.9,16.293,13.035,16.934c6.625,0.516,52.807,4.25,74.98,10.785
			c13.021-31.309,43.67-105.922,43.67-105.922v-83.438C278.295,187.688,253.538,182.488,209.219,182.488L209.219,182.488z"/>
		<path d="M307.303,250.277c-14.982-12.414-57.676-31.312-79.525-20.238c24.461,1.652,58.344,13.703,80.178,31.594
			C307.616,256.434,307.303,250.277,307.303,250.277z"/>
		<path d="M306.965,284.793c-14.982-12.371-57.678-31.254-79.525-20.195c24.461,1.652,58.342,13.688,80.176,31.609
			C307.303,290.996,306.965,284.793,306.965,284.793z"/>
		<path d="M306.331,317.094c-15-12.414-57.691-27.383-79.527-16.328c22.908,1.543,54.135,8.805,75.939,24.434
			C304.042,322.617,306.331,317.094,306.331,317.094z"/>
		<path d="M294.989,349.562c-18.967-10.477-52.084-19.66-70.475-10.324c19.816,1.312,45.787,6.934,66.551,18.5
			C292.971,354.25,293.633,352.598,294.989,349.562z"/>
	</g>
	<path d="M351.299,556.637H249.288c-13.232,0-24.857-6.176-31.934-16.891c-8.416-12.699-9.25-29.996-2.301-46.242
		c14.477-33.824,77.889-182.469,86.391-202.438V149.875h48.555v23.477h-25.082v122.5l-0.945,2.176
		c-0.721,1.707-71.889,168.629-87.354,204.703c-3.799,8.84-3.658,18.059,0.326,24.105c2.725,4.164,7.004,6.297,12.344,6.297h102.011
		V556.637z"/>
	<path d="M334.69,429.996c0-9.848,7.189-18.066,16.609-19.59v-34.844h-44.644c0,0-57.367,134.312-58.668,137.559
		c-1.312,3.25,0.652,6.992,3.928,6.992c3.248,0,99.384,0,99.384,0l0.041-70.488C341.907,448.113,334.69,439.879,334.69,429.996z
		 M309.581,481.191c-8.449,0-15.297-6.879-15.297-15.34c0-8.445,6.848-15.309,15.297-15.309c8.471,0,15.32,6.863,15.32,15.309
		C324.901,474.312,318.051,481.191,309.581,481.191z"/>
	<path d="M351.299,175.312H298.28c-4.547,0-8.262-3.73-8.262-8.293v-10.816c0-4.562,3.715-8.289,8.262-8.289h53.019V175.312z"/>
	<path d="M321.329,651.84c-97.322-32.258-154.789-81.719-188.98-161.047C94.653,403.359,85.022,277.676,84.104,116.77
		c29.023,6.191,55.488,9.168,80.162,9.168c57.834,0,108.846-16.578,157.051-51.664c0,0,17.934-12.863,28.652-23.457
		c0-2.215,7.853,1.469,7.853,1.469v-30l-7.837-11.238l0,0c-58.766,60.562-116.953,86.25-185.705,86.25
		c-33.387,0-69.244-6.074-108.916-17.145C54.7,460.316,92.846,620.672,349.985,688.953l7.851-3.09v-27.387l-7.851-0.832
		L321.329,651.84z"/>
</g>
</svg>
