<?xml version="1.0" encoding="utf-8"?>
<!-- Generator: Adobe Illustrator 16.0.0, SVG Export Plug-In . SVG Version: 6.00 Build 0)  -->
<!DOCTYPE svg PUBLIC "-//W3C//DTD SVG 1.1//EN" "http://www.w3.org/Graphics/SVG/1.1/DTD/svg11.dtd">
<svg version="1.1" id="Layer_1" xmlns="http://www.w3.org/2000/svg" xmlns:xlink="http://www.w3.org/1999/xlink" x="0px" y="0px"
	 width="1500px" height="600px" viewBox="0 0 1500 600" enable-background="new 0 0 1500 600" xml:space="preserve">
<g>
	<path fill="#8E8E8E" d="M675.054,168.848H641.95v-7.405c0-2.322,1.163-3.772,3.46-4.32l0.104-0.024h0.104
		c0.219-0.015,2.013-0.254,6.237-0.86v-39.723c0-0.512,0.03-1.019,0.06-1.517c0.02-0.328,0.04-0.65,0.05-0.989l-22.049,41.464
		c-0.661,1.183-1.556,2.167-2.524,2.769c-1.099,0.69-2.271,1.028-3.574,1.028h-1.978c-1.308,0-2.476-0.338-3.569-1.028
		c-0.979-0.602-1.868-1.58-2.524-2.749l-22.338-41.537c0.061,0.895,0.061,1.764,0.061,2.564v39.718
		c3.623,0.518,5.974,0.846,6.268,0.865h0.104l0.074,0.025c2.302,0.547,3.465,1.998,3.465,4.318v7.406h-33.108v-7.406
		c0-2.32,1.163-3.771,3.454-4.318l0.104-0.025h0.104c0.084,0,0.184,0,0.372-0.049c0.389-0.14,0.98-0.254,1.815-0.384
		c0.481-0.074,1.157-0.173,1.918-0.308c0.194-0.029,0.393-0.064,0.597-0.1V99.983c-0.199-0.021-0.402-0.056-0.592-0.096
		c-0.756-0.139-1.437-0.243-1.923-0.317c-0.438-0.069-0.801-0.144-1.089-0.224c-0.169-0.05-0.373-0.09-0.442-0.09l-0.13-0.005
		l-0.158-0.039c-0.189-0.07-0.294-0.07-0.373-0.07h-0.104l-0.104-0.029c-2.291-0.542-3.454-1.979-3.454-4.3v-7.426h20.408
		c0.397,0,0.79,0.04,1.139,0.074c0.238,0.025,0.467,0.045,0.626,0.045c0.537,0,1.168,0.119,1.57,0.264
		c0.592,0.154,0.935,0.532,1.218,0.815c0.05,0.064,0.104,0.124,0.164,0.193c0.383,0.373,0.766,0.885,1.128,1.486l23.809,44.192
		c0.457,0.854,0.815,1.689,1.158,2.515c0.175,0.388,0.333,0.775,0.521,1.188c0.259,0.577,0.527,1.188,0.791,1.81
		c0.229-0.602,0.462-1.173,0.721-1.784c0.636-1.546,1.188-2.729,1.794-3.833l23.565-44.037c0.089-0.144,0.153-0.264,0.208-0.354
		c0.254-0.446,0.487-0.845,0.83-1.173c0.378-0.387,0.845-0.854,1.531-1.019c0.467-0.124,0.984-0.253,1.551-0.253
		c0.145,0,0.343-0.021,0.566-0.046c0.313-0.044,0.671-0.084,1.084-0.084h20.403v7.426c0,2.321-1.158,3.758-3.454,4.3l-0.14,0.029
		c-0.148,0.045-0.397,0.114-0.73,0.114c-0.064,0-0.269,0.04-0.438,0.09c-0.288,0.08-0.651,0.154-1.078,0.224
		c-0.433,0.064-0.949,0.164-1.562,0.269c-0.272,0.055-0.547,0.104-0.85,0.139v56.275c0.303,0.06,0.581,0.1,0.85,0.145
		c0.612,0.114,1.139,0.198,1.562,0.264c0.427,0.068,0.79,0.153,1.078,0.229c0.169,0.044,0.373,0.104,0.442,0.104l0,0
		c0.333,0,0.581,0.061,0.726,0.1l0.14,0.029c2.296,0.548,3.454,1.998,3.454,4.32V168.848L675.054,168.848z"/>
	<path fill="#8E8E8E" d="M763.478,168.848h-28.699v-6.531c0-1.64,0.894-2.848,2.733-3.692c0.1-0.055,0.244-0.109,0.492-0.185
		c0.238-0.094,0.547-0.219,0.939-0.367l-0.149-0.394l-3.743-10.184h-30.423l-3.817,10.611c0.353,0.135,0.646,0.249,0.869,0.333
		c0.234,0.075,0.388,0.13,0.508,0.199c1.818,0.83,2.714,2.038,2.714,3.678v6.531h-28.694v-6.531c0-1.64,0.89-2.848,2.729-3.692
		l0.05-0.021c0.428-0.169,1.884-0.79,4.08-1.714l1.596-0.671l26.96-68.831h16.438l27.068,68.831l1.649,0.69
		c2.173,0.914,3.614,1.53,4.037,1.694c1.744,0.666,2.669,1.949,2.669,3.713v6.531H763.478z M709.146,135.179h21.481l-8.678-23.54
		c-0.238-0.646-0.477-1.322-0.725-2.048c-0.22-0.631-0.453-1.303-0.717-2.023c-0.254-0.716-0.482-1.486-0.705-2.276
		c-0.224,0.74-0.438,1.481-0.622,2.192c-0.353,1.342-0.78,2.455-1.153,3.435c-0.104,0.283-0.209,0.557-0.309,0.835L709.146,135.179z
		"/>
	<path fill="#8E8E8E" d="M789.979,169.728h-1.655c-7.009,0-14.772-1.427-23.093-4.239l-0.616-0.209v-22.054h7.193
		c1.823,0,2.977,0.899,3.419,2.669c0.224,1.02,0.531,3.763,0.959,8.658c3.042,0.83,7.71,1.224,14.226,1.224
		c3.981,0,7.073-0.931,9.205-2.749c2.082-1.795,3.097-4.369,3.097-7.894c0-1.834-0.468-3.454-1.361-4.632
		c-0.876-1.163-2.178-2.188-3.858-3.027c-1.869-0.935-3.672-1.649-5.69-2.262c-0.78-0.233-1.576-0.457-2.381-0.681
		c-1.441-0.393-2.933-0.801-4.374-1.312c-2.206-0.735-4.434-1.605-6.789-2.679c-2.133-0.959-4.216-2.386-6.193-4.245
		c-1.863-1.744-3.271-3.871-4.3-6.506c-1.128-2.729-1.72-6.01-1.72-9.464c0-3.102,0.621-6.079,1.839-8.848
		c1.124-2.798,2.947-5.473,5.273-7.674c2.207-2.098,4.972-3.822,8.431-5.259c3.295-1.353,7.147-2.043,11.472-2.043
		c7.808,0,15.597,1.551,23.142,4.593l0.572,0.233v21.905h-7.188c-1.252,0-2.854-0.482-3.425-2.794
		c-0.229-1.028-0.537-3.803-0.97-8.509c-2.579-0.984-6.61-1.491-12.019-1.491c-1.928,0-3.513,0.214-5.01,0.631
		c-1.55,0.547-2.703,1.183-3.515,1.909c-0.974,0.859-1.734,1.858-2.201,2.877c-0.453,0.989-0.69,2.262-0.69,3.688
		c0,1.526,0.487,2.878,1.446,4.046c0.984,1.203,2.251,2.202,3.782,2.952c2.122,1.079,3.966,1.814,5.795,2.371
		c1.661,0.497,3.291,1.054,5.011,1.626c0.571,0.188,1.147,0.382,1.734,0.591c2.361,0.771,4.613,1.794,6.8,2.784
		c2.286,1.019,4.374,2.405,6.198,4.13c1.983,1.864,3.425,3.867,4.408,6.148c1.074,2.267,1.611,5.159,1.611,8.838
		c0,3.573-0.616,6.863-1.939,10.333c-1.291,3.425-3.131,6.232-5.611,8.594c-2.395,2.396-5.428,4.324-9.001,5.706
		C798.424,169.062,794.503,169.728,789.979,169.728z"/>
	<path fill="#8E8E8E" d="M869.62,168.848h-33.326v-7.405c0-2.322,1.163-3.772,3.464-4.32l0.135-0.029
		c0.154-0.039,0.407-0.1,0.735-0.1c0.06,0,0.272-0.06,0.433-0.104c0.299-0.075,0.66-0.16,1.088-0.229
		c0.424-0.065,0.949-0.145,1.562-0.264c0.264-0.05,0.547-0.09,0.84-0.145v-54.898h-14.434c-0.215,2.197-0.413,3.489-0.483,3.848
		l-0.009,0.079c-0.583,2.302-2.178,2.788-3.42,2.788h-7.302V87.393h68.016v20.677h-7.202c-1.8,0-3.087-1.019-3.524-2.788
		l-0.02-0.079c-0.18-1.049-0.334-2.316-0.482-3.748h-14.43v54.799c0.294,0.06,0.576,0.1,0.845,0.145
		c0.607,0.114,1.14,0.198,1.552,0.264c0.441,0.068,0.801,0.153,1.089,0.229c0.169,0.044,0.377,0.104,0.441,0.104l0,0
		c0.323,0,0.577,0.061,0.731,0.1l0.134,0.029c2.341,0.557,3.568,2.038,3.568,4.32V168.848z"/>
	<path fill="#8E8E8E" d="M950.852,169.728c-5.84,0-11.143-1.024-16.213-3.146c-4.951-2.072-9.141-4.971-12.437-8.594
		c-3.489-3.847-6.144-8.29-7.893-13.201c-1.819-5.104-2.699-10.542-2.699-16.611c0-6.133,1.024-11.814,3.036-16.85
		c2.019-5.064,4.827-9.34,8.575-13.087c3.892-3.882,8.211-6.73,13.196-8.688c5.034-2.003,10.746-3.031,16.959-3.031
		c6.824,0,15.339,1.952,25.334,5.78l0.587,0.229v21.82h-7.317c-1.818,0-2.972-0.899-3.413-2.685c-0.224-0.994-0.532-3.648-0.96-8.32
		c-5.518-1.556-10.209-2.326-14.345-2.326c-3.792,0-7.063,0.587-9.995,1.8c-3.037,1.263-5.557,3.012-7.715,5.388
		c-2.187,2.41-3.862,5.194-5.104,8.523c-1.277,3.396-1.929,7.242-1.929,11.447c0,4.344,0.632,8.137,1.929,11.581
		c1.387,3.693,2.893,6.323,4.886,8.505c2.044,2.261,4.469,3.98,7.401,5.298c2.753,1.203,5.642,1.785,9.097,1.785
		c1.967,0,3.786-0.115,5.387-0.328c1.646-0.224,3.106-0.527,4.35-0.955c1.183-0.388,2.445-0.994,3.648-1.764
		c1.043-0.662,2.191-1.562,3.509-2.769c0.407-0.402,0.939-0.677,1.417-0.91c0.641-0.323,1.248-0.323,1.734-0.323
		c1.168,0,2.142,0.413,2.793,1.213l6.343,6.934l-0.497,0.616c-3.311,4.121-7.431,7.277-12.238,9.404
		C963.367,168.635,957.512,169.728,950.852,169.728z"/>
	<path fill="#8E8E8E" d="M1041.73,168.848h-60.42v-7.405c0-2.322,1.163-3.772,3.465-4.32l0.139-0.029
		c0.149-0.039,0.402-0.1,0.73-0.1c0.069,0,0.273-0.06,0.433-0.104c0.293-0.075,0.656-0.16,1.084-0.229
		c0.497-0.075,1.158-0.18,1.933-0.309c0.189-0.03,0.383-0.065,0.592-0.1v-56.27c-0.209-0.021-0.402-0.056-0.586-0.096
		c-0.771-0.139-1.441-0.243-1.938-0.317c-0.428-0.069-0.791-0.144-1.084-0.224c-0.164-0.05-0.368-0.09-0.442-0.09l0,0
		c-0.318,0-0.571-0.074-0.72-0.114l-0.14-0.029c-2.302-0.542-3.465-1.979-3.465-4.3v-7.426h60.42v22.77h-7.307
		c-1.242,0-2.843-0.487-3.419-2.788l-0.024-0.119l-0.056-0.458c-0.124-0.979-0.382-2.912-0.641-5.78h-23.903v20.185h26.985v13.286
		h-26.985v20.638h23.903c0.264-2.868,0.517-4.816,0.641-5.781l0.08-0.571c0.576-2.307,2.177-2.794,3.419-2.794h7.307V168.848z"/>
	<path fill="#8E8E8E" d="M1102.946,168.848h-59.541v-7.405c0-2.322,1.164-3.772,3.47-4.32l0.104-0.024h0.104
		c0.075,0,0.175,0,0.368-0.05c0.377-0.139,0.974-0.253,1.81-0.383c0.492-0.074,1.157-0.179,1.923-0.308
		c0.194-0.03,0.388-0.064,0.587-0.1V99.983c-0.199-0.021-0.393-0.056-0.582-0.096c-0.766-0.139-1.436-0.243-1.928-0.317
		c-0.433-0.069-0.791-0.144-1.089-0.224c-0.159-0.05-0.368-0.09-0.443-0.09l-0.124-0.01l-0.153-0.04
		c-0.194-0.069-0.299-0.069-0.368-0.069h-0.104l-0.104-0.029c-2.306-0.542-3.47-1.979-3.47-4.3v-7.421h33.332v7.426
		c0,2.321-1.163,3.758-3.454,4.3l-0.105,0.029h-0.104c-0.085,0-0.189,0-0.373,0.07c-0.388,0.114-0.979,0.248-1.814,0.357
		c-0.487,0.079-1.168,0.179-1.934,0.317c-0.184,0.04-0.388,0.08-0.581,0.096v54.798h23.893l0.025-0.233
		c0.174-2.301,0.263-3.345,0.378-3.798c0.581-2.32,2.182-2.793,3.419-2.793h6.864v20.891H1102.946z"/>
	<path fill="#8E8E8E" d="M1164.062,168.848h-59.535v-7.405c0-2.322,1.158-3.772,3.454-4.32l0.104-0.024h0.104
		c0.079,0,0.184,0,0.372-0.05c0.389-0.139,0.98-0.253,1.81-0.383c0.487-0.074,1.158-0.174,1.923-0.308
		c0.19-0.03,0.395-0.064,0.597-0.1V99.983c-0.198-0.021-0.401-0.056-0.586-0.096c-0.77-0.139-1.441-0.243-1.934-0.317
		c-0.428-0.069-0.796-0.144-1.078-0.224c-0.17-0.05-0.374-0.09-0.442-0.09l-0.125-0.01l-0.159-0.04
		c-0.188-0.069-0.293-0.069-0.372-0.069h-0.104l-0.104-0.029c-2.296-0.542-3.455-1.979-3.455-4.3v-7.421h33.327v7.426
		c0,2.321-1.162,3.758-3.464,4.3l-0.104,0.029h-0.104c-0.074,0-0.174,0-0.372,0.07c-0.379,0.114-0.971,0.248-1.805,0.357
		c-0.497,0.079-1.163,0.179-1.938,0.317c-0.188,0.04-0.377,0.08-0.581,0.096v54.798h23.892l0.021-0.233
		c0.188-2.301,0.269-3.345,0.383-3.798c0.571-2.32,2.177-2.793,3.42-2.793h6.863v20.891H1164.062z"/>
	<path fill="#8E8E8E" d="M784.905,276.896h-36.409v-8.191c0-2.555,1.337-4.221,3.867-4.808l0.129-0.029h0.124
		c0.086,0,0.175,0,0.354-0.069c0.432-0.135,1.078-0.273,1.987-0.398c0.452-0.074,1.024-0.164,1.681-0.293
		c0.258-0.049,0.517-0.084,0.794-0.133v-23.774H719.3v23.774c0.175,0.029,0.349,0.062,0.517,0.089
		c0.82,0.138,1.552,0.253,2.073,0.337c0.478,0.07,0.874,0.155,1.188,0.244c0.164,0.049,0.382,0.104,0.452,0.11h0.188l0.158,0.044
		c0.185,0.069,0.279,0.069,0.349,0.069h0.135l0.129,0.029c2.53,0.587,3.867,2.253,3.867,4.808v8.191h-36.538v-8.191
		c0-2.555,1.343-4.221,3.867-4.808l0.159-0.029c0.153-0.05,0.452-0.108,0.82-0.108c0.054-0.005,0.273-0.066,0.438-0.11
		c0.312-0.085,0.716-0.174,1.192-0.244c0.521-0.089,1.247-0.198,2.073-0.337c0.164-0.025,0.338-0.061,0.511-0.09v-60.703
		c-0.164-0.025-0.328-0.045-0.477-0.074c-0.85-0.155-1.586-0.274-2.107-0.354c-0.482-0.063-0.88-0.158-1.192-0.248
		c-0.164-0.045-0.384-0.089-0.452-0.089h-0.189l-0.159-0.07c-0.184-0.063-0.277-0.063-0.348-0.063h-0.134l-0.13-0.035
		c-2.53-0.581-3.866-2.253-3.866-4.808v-8.186h36.537v8.186c0,2.555-1.342,4.227-3.867,4.808l-0.129,0.035h-0.134
		c-0.075,0-0.164,0-0.349,0.063l-0.174,0.07h-0.189c-0.055,0-0.272,0.044-0.437,0.089c-0.313,0.09-0.716,0.185-1.188,0.248
		c-0.532,0.085-1.272,0.199-2.107,0.354c-0.154,0.029-0.318,0.049-0.482,0.074v23.177h38.139v-23.183
		c-0.279-0.029-0.527-0.084-0.78-0.129c-0.667-0.119-1.243-0.224-1.696-0.294c-0.799-0.103-1.396-0.228-1.818-0.342
		c-0.283-0.021-0.502-0.089-0.632-0.12h-0.02l-0.129-0.035c-2.535-0.581-3.867-2.251-3.867-4.806v-8.186h36.409v8.186
		c0,2.555-1.338,4.225-3.863,4.806l-0.153,0.035c-0.164,0.045-0.452,0.129-0.825,0.129c-0.065,0-0.283,0.045-0.432,0.09
		c-0.324,0.09-0.721,0.185-1.193,0.249c-0.452,0.069-1.024,0.169-1.695,0.293c-0.243,0.051-0.507,0.104-0.781,0.129v60.704
		c0.284,0.055,0.543,0.09,0.791,0.134c0.671,0.124,1.238,0.22,1.686,0.293c0.477,0.07,0.869,0.155,1.193,0.244
		c0.148,0.049,0.366,0.105,0.446,0.11c0.006,0,0.006,0,0.006,0c0.353,0,0.641,0.064,0.805,0.108h0.029l0.124,0.029
		c2.53,0.587,3.863,2.253,3.863,4.808v8.191H784.905z"/>
	<path fill="#8E8E8E" d="M837.557,277.849c-6.478,0-12.641-1.143-18.316-3.419c-5.492-2.202-10.283-5.378-14.235-9.46
		c-3.907-4.01-6.993-8.842-9.185-14.318c-2.118-5.294-3.191-11.363-3.191-18.093s1.044-12.601,3.191-17.958
		c2.187-5.478,5.277-10.289,9.185-14.325c3.952-4.08,8.743-7.256,14.235-9.438c5.681-2.292,11.839-3.435,18.316-3.435
		c6.794,0,12.754,1.119,18.226,3.435c5.761,2.426,10.413,5.522,14.212,9.438c3.821,3.942,6.788,8.63,9.065,14.325
		c2.187,5.486,3.305,11.521,3.305,17.958c0,6.517-1.118,12.6-3.305,18.093c-2.277,5.696-5.249,10.384-9.065,14.318
		c-3.952,4.082-8.739,7.258-14.236,9.46C850.008,276.735,844.053,277.849,837.557,277.849z M837.557,203.417
		c-4.3,0-7.997,0.65-10.995,1.933c-3.176,1.353-5.925,3.312-8.191,5.796c-2.275,2.525-4.005,5.513-5.253,9.15
		c-1.263,3.658-1.845,7.575-1.845,12.268c0,4.727,0.603,8.789,1.845,12.396c1.248,3.654,2.978,6.642,5.253,9.146
		c2.267,2.485,5.021,4.448,8.191,5.8c2.998,1.299,6.695,1.944,10.995,1.944c4.289,0,7.843-0.646,10.885-1.944
		c3.176-1.352,5.926-3.314,8.191-5.8c2.331-2.565,4.001-5.542,5.119-9.116c1.248-4,1.854-8.052,1.854-12.426
		c0-4.329-0.586-8.236-1.854-12.302c-1.123-3.563-2.793-6.551-5.119-9.116c-2.266-2.484-5.02-4.443-8.197-5.796
		C845.399,204.049,841.846,203.417,837.557,203.417z"/>
	<path fill="#8E8E8E" d="M926.626,276.896h-36.419v-8.191c0-2.555,1.348-4.221,3.873-4.808l0.154-0.029
		c0.133-0.04,0.348-0.104,0.621-0.104c0.423-0.129,1.028-0.238,1.829-0.358c0.521-0.089,1.253-0.198,2.077-0.337
		c0.169-0.031,0.338-0.061,0.518-0.09v-60.703c-0.169-0.025-0.333-0.045-0.492-0.074c-0.85-0.155-1.581-0.274-2.107-0.354
		c-0.479-0.063-0.88-0.158-1.193-0.248c-0.159-0.045-0.378-0.089-0.447-0.089h-0.188l-0.164-0.07
		c-0.188-0.063-0.284-0.063-0.353-0.063h-0.135l-0.125-0.035c-2.529-0.581-3.871-2.253-3.871-4.808v-8.186h36.815
		c5.726,0,11.054,0.726,15.374,2.078c4.096,1.297,7.729,3.295,10.795,5.965c2.869,2.494,5.025,5.531,6.397,9.025
		c1.396,3.568,2.108,7.436,2.108,11.501c0,4.404-0.756,8.431-2.237,12.019c-1.536,3.708-3.659,6.776-6.486,9.36
		c-2.734,2.49-6.397,4.532-10.901,6.088c-4.104,1.407-9.016,2.088-15.044,2.088h-9.464v16.492c0.173,0.029,0.353,0.064,0.517,0.09
		c0.825,0.139,1.55,0.253,2.073,0.338c0.481,0.069,0.879,0.159,1.192,0.243c0.164,0.05,0.382,0.104,0.452,0.109l0,0
		c0.354,0,0.65,0.064,0.806,0.109h0.029l0.129,0.03c2.525,0.586,3.867,2.251,3.867,4.806V276.896z M917.561,231.653h9.464
		c2.892,0,5.373-0.328,7.391-1.003c2.147-0.716,3.708-1.605,4.921-2.824l0.029-0.04c1.288-1.172,2.271-2.697,2.918-4.551
		c0.661-1.736,1.014-3.973,1.014-6.304c0-2.097-0.328-3.99-1.004-5.795c-0.632-1.681-1.586-3.097-2.928-4.319
		c-1.253-1.148-2.867-2.044-4.951-2.739c-2.018-0.671-4.498-1.019-7.39-1.019h-9.464V231.653z"/>
	<path fill="#8E8E8E" d="M1035.294,276.896h-65.759v-8.191c0-2.555,1.343-4.221,3.867-4.808l0.159-0.029
		c0.164-0.05,0.452-0.108,0.82-0.108c0.054-0.005,0.278-0.066,0.438-0.11c0.312-0.089,0.716-0.174,1.192-0.244
		c0.521-0.089,1.248-0.198,2.073-0.337c0.174-0.025,0.338-0.061,0.521-0.09v-60.703c-0.169-0.025-0.337-0.045-0.497-0.074
		c-0.85-0.155-1.58-0.274-2.102-0.354c-0.483-0.063-0.881-0.158-1.193-0.248c-0.159-0.045-0.383-0.089-0.452-0.089l0,0
		c-0.353,0-0.642-0.09-0.806-0.129h-0.03l-0.129-0.035c-2.525-0.582-3.867-2.252-3.867-4.808v-8.186h65.759v24.956h-8.067
		c-1.982,0-3.349-1.113-3.856-3.142l-0.02-0.129l-0.069-0.501c-0.15-1.129-0.403-3.111-0.681-6.125h-25.594v21.562h29.227v14.703
		h-29.227v22.033h25.594c0.277-3.007,0.525-4.99,0.681-6.113l0.089-0.65c0.512-2.014,1.874-3.127,3.856-3.127h8.067v25.076H1035.294
		z"/>
</g>
<g>
	<g>
		<path fill="#8E8E8E" d="M470.71,210.312c0,0,29.465-2.904,33.267-3.435c3.211-0.458,4.126-1.829,3.892-5.165
			c-0.184-2.744-3.205-58.85-3.319-61.598c-0.114-2.754-1.144-3.668-3.793-3.668c-2.773,0-7.798,0.457-9.976,1.501
			c0.229,2.062,0.229,3.663,0.458,4.811c2.524-1.038,8.374-1.272,8.374-1.272l2.993,60.754h-35.33L470.71,210.312z"/>
		<path fill="#8E8E8E" d="M488.777,128.404c0.283,6.044,1.536,30.035,2.386,46.354c0.407,7.884,0.735,14.086,0.771,14.931
			c0.005,0.1,0.01,0.185,0.01,0.254c-4.855,0.407-14.702,1.332-22.183,2.798c-4.434-10.69-11.407-27.645-13.157-31.93V135.8
			C467.295,130.094,474.82,128.438,488.777,128.404 M489.185,122.911c-15.602,0-24.319,1.829-38.083,9.638v29.365
			c0,0,10.781,26.259,15.373,37.278c7.799-2.301,24.043-3.613,26.379-3.798c2.873-0.224,4.821-1.143,4.593-5.959
			c-0.13-2.759-3.067-58.373-3.211-62.408C494.115,123.95,492.391,122.911,489.185,122.911L489.185,122.911z"/>
		<path fill="#8E8E8E" d="M454.655,146.77c5.279-4.369,20.304-11.02,27.988-7.123c-8.599,0.582-20.532,4.821-28.217,11.119
			C454.536,148.937,454.655,146.77,454.655,146.77z"/>
		<path fill="#8E8E8E" d="M454.77,158.917c5.279-4.354,20.305-11,27.988-7.107c-8.599,0.581-20.532,4.816-28.222,11.124
			C454.655,161.1,454.77,158.917,454.77,158.917z"/>
		<path fill="#8E8E8E" d="M454.998,170.284c5.279-4.368,20.305-9.638,27.988-5.745c-8.066,0.541-19.046,3.097-26.726,8.599
			C455.799,172.228,454.998,170.284,454.998,170.284z"/>
		<path fill="#8E8E8E" d="M458.989,181.711c6.686-3.688,18.342-6.918,24.798-3.633c-6.959,0.462-16.109,2.44-23.416,6.511
			C459.7,183.36,459.472,182.779,458.989,181.711z"/>
	</g>
	<path fill="#8E8E8E" d="M439.625,290.136v11.02c90.501-24.031,103.927-80.466,103.697-214.255
		c-13.951,3.896-26.581,6.034-38.331,6.034c-24.187,0-44.664-9.041-65.361-30.354l0,0c0,0,0,9.454,0,13.992
		c3.793,3.728,10.101,8.256,10.101,8.256c16.958,12.347,34.916,18.182,55.261,18.182c8.692,0,18.008-1.049,28.217-3.226
		c-0.313,56.633-3.703,100.859-16.97,131.631c-12.038,27.92-32.257,45.325-66.508,56.679L439.625,290.136z"/>
	<path fill="#8E8E8E" d="M475.074,254.587h-35.449v-8.265h35.449c1.883,0,3.39-0.751,4.349-2.218
		c1.401-2.127,1.441-5.373,0.114-8.484c-5.452-12.694-30.498-71.439-30.747-72.041l-0.333-0.766V119.7h-8.832v-8.266h17.099v49.685
		c2.992,7.027,25.299,59.341,30.403,71.246c2.445,5.715,2.143,11.804-0.815,16.272C483.827,252.415,479.731,254.587,475.074,254.587
		z"/>
	<path fill="#8E8E8E" d="M475.531,239.278c-0.457-1.143-20.647-48.412-20.647-48.412H439.63v12.348
		c0.521-0.109,1.054-0.189,1.605-0.189c3.862,0,6.993,3.141,6.993,6.994c0,3.877-3.131,6.998-6.993,6.998
		c-0.552,0-1.084-0.079-1.605-0.189v24.912c0,0,33.387,0,34.529,0C475.303,241.739,475.993,240.422,475.531,239.278z
		 M445.137,232.161c-2.276,0-4.13-1.85-4.13-4.126s1.854-4.125,4.13-4.125c2.277,0,4.136,1.849,4.136,4.125
		S447.414,232.161,445.137,232.161z"/>
	<path fill="#8E8E8E" d="M460.734,117.469c0,1.605-1.307,2.918-2.908,2.918h-18.201v-9.638h18.201c1.602,0,2.908,1.312,2.908,2.917
		V117.469z"/>
</g>
<g>
	<g>
		<path fill="#8E8E8E" d="M408.545,210.312c0,0-29.455-2.904-33.257-3.435c-3.216-0.458-4.136-1.829-3.906-5.165
			c0.188-2.749,3.215-58.854,3.329-61.598c0.114-2.754,1.148-3.668,3.782-3.668c2.774,0,7.795,0.457,9.977,1.501
			c-0.229,2.062-0.229,3.663-0.462,4.811c-2.521-1.038-8.371-1.272-8.371-1.272l-2.981,60.754h35.329L408.545,210.312z"/>
		<path fill="#8E8E8E" d="M390.482,128.404c13.957,0.034,21.487,1.689,32.179,7.396v25.011c-1.76,4.285-8.723,21.233-13.152,31.93
			c-7.49-1.471-17.326-2.391-22.197-2.798c0.005-0.069,0.005-0.154,0.01-0.254c0.045-0.845,0.368-7.047,0.78-14.931
			C388.946,158.439,390.204,134.448,390.482,128.404 M390.085,122.911c-3.216,0-4.936,1.039-5.05,4.12
			c-0.149,4.036-3.087,59.65-3.217,62.409c-0.229,4.816,1.726,5.735,4.588,5.96c2.332,0.183,18.585,1.495,26.389,3.797
			c4.583-11.021,15.368-37.278,15.368-37.278v-29.365C414.396,124.74,405.683,122.911,390.085,122.911L390.085,122.911z"/>
		<path fill="#8E8E8E" d="M424.604,146.77c-5.274-4.369-20.299-11.02-27.988-7.123c8.608,0.582,20.532,4.821,28.217,11.119
			C424.714,148.937,424.604,146.77,424.604,146.77z"/>
		<path fill="#8E8E8E" d="M424.485,158.917c-5.273-4.354-20.3-11-27.989-7.107c8.609,0.581,20.533,4.816,28.218,11.124
			C424.604,161.1,424.485,158.917,424.485,158.917z"/>
		<path fill="#8E8E8E" d="M424.261,170.284c-5.277-4.368-20.304-9.638-27.987-5.745c8.062,0.541,19.051,3.097,26.726,8.599
			C423.456,172.228,424.261,170.284,424.261,170.284z"/>
		<path fill="#8E8E8E" d="M420.271,181.711c-6.676-3.688-18.331-6.918-24.803-3.633c6.974,0.462,16.114,2.44,23.421,6.511
			C419.56,183.36,419.793,182.779,420.271,181.711z"/>
	</g>
	<path fill="#8E8E8E" d="M440.087,254.587h-35.901c-4.657,0-8.748-2.172-11.237-5.943c-2.963-4.47-3.256-10.559-0.811-16.273
		c5.095-11.904,27.412-64.218,30.403-71.246v-49.689h17.089v8.261h-8.827v43.113l-0.334,0.766
		c-0.253,0.602-25.299,59.347-30.741,72.04c-1.337,3.113-1.287,6.359,0.114,8.486c0.959,1.466,2.466,2.216,4.344,2.216h35.901
		V254.587z"/>
	<path fill="#8E8E8E" d="M434.242,210.019c0-3.465,2.53-6.358,5.845-6.896v-12.261h-15.711c0,0-20.19,47.269-20.647,48.411
		c-0.462,1.144,0.229,2.461,1.382,2.461c1.144,0,34.977,0,34.977,0l0.015-24.808C436.782,216.395,434.242,213.497,434.242,210.019z
		 M425.404,228.035c-2.972,0-5.383-2.42-5.383-5.397c0-2.973,2.411-5.389,5.383-5.389c2.982,0,5.393,2.416,5.393,5.389
		C430.797,225.615,428.387,228.035,425.404,228.035z"/>
	<path fill="#8E8E8E" d="M440.087,120.387h-18.659c-1.6,0-2.907-1.312-2.907-2.918v-3.808c0-1.605,1.308-2.917,2.907-2.917h18.659
		V120.387z"/>
	<path fill="#8E8E8E" d="M429.54,288.094c-34.251-11.354-54.476-28.759-66.51-56.679c-13.266-30.771-16.655-75.003-16.979-131.631
		c10.214,2.177,19.529,3.226,28.213,3.226c20.354,0,38.307-5.835,55.271-18.182c0,0,6.312-4.528,10.085-8.256
		c0-0.78,2.764,0.517,2.764,0.517V66.532l-2.759-3.957l0,0c-20.682,21.313-41.16,30.354-65.356,30.354
		c-11.749,0-24.369-2.137-38.332-6.034c-0.232,133.794,13.192,190.229,103.688,214.26l2.764-1.089v-9.638l-2.764-0.293
		L429.54,288.094z"/>
</g>
<g>
	<path fill="#8E8E8E" d="M629.509,325.573v20.806h12.959v4.392h-17.71v-25.197H629.509z"/>
	<path fill="#8E8E8E" d="M677.026,338.316c-0.072,6.515-4.067,13.03-12.922,13.03c-8.855,0-12.959-6.371-12.959-12.994
		c0-6.624,4.248-13.283,12.959-13.283C672.779,325.069,677.099,331.729,677.026,338.316z M655.825,338.424
		c0.108,4.14,2.34,8.567,8.279,8.567c5.938,0,8.171-4.464,8.242-8.604c0.072-4.247-2.304-8.998-8.242-8.998
		C658.165,329.39,655.717,334.177,655.825,338.424z"/>
	<path fill="#8E8E8E" d="M705.61,346.02h-13.174l-2.16,4.751h-5.147l11.303-25.197h5.184l11.303,25.197h-5.184L705.61,346.02z
		 M699.023,330.865l-4.68,10.727h9.359L699.023,330.865z"/>
	<path fill="#8E8E8E" d="M745.21,337.956c0.108,6.371-3.779,12.814-12.599,12.814c-3.095,0-6.803,0-9.898,0v-25.197
		c3.096,0,6.804,0,9.898,0C741.251,325.573,745.103,331.729,745.21,337.956z M727.429,346.199h5.183
		c5.724,0,7.991-4.176,7.884-8.279c-0.108-3.923-2.412-7.847-7.884-7.847h-5.183V346.199z"/>
	<path fill="#8E8E8E" d="M755.976,350.771v-25.197h4.716v25.197H755.976z"/>
	<path fill="#8E8E8E" d="M788.914,325.538h4.751v25.232h-2.952v0.036l-13.246-17.026v16.99h-4.751v-25.197h3.852l12.347,15.622
		V325.538z"/>
	<path fill="#8E8E8E" d="M823.941,331.729c-1.691-1.619-4.212-2.52-6.407-2.52c-5.399,0-8.675,4.104-8.675,9.287
		c0,4.14,2.411,8.423,8.675,8.423c1.979,0,3.708-0.432,5.688-2.016v-4.464h-6.443v-4.247h10.799v10.618
		c-2.484,2.844-5.615,4.536-10.043,4.536c-9.467,0-13.318-6.228-13.318-12.851c0-7.091,4.428-13.643,13.318-13.643
		c3.384,0,6.768,1.296,9.358,3.852L823.941,331.729z"/>
	<path fill="#8E8E8E" d="M843.419,348.503c0,3.419-5.184,3.419-5.184,0C838.235,345.083,843.419,345.083,843.419,348.503z"/>
	<path fill="#8E8E8E" d="M859.33,348.503c0,3.419-5.184,3.419-5.184,0C854.146,345.083,859.33,345.083,859.33,348.503z"/>
	<path fill="#8E8E8E" d="M875.242,348.503c0,3.419-5.184,3.419-5.184,0C870.059,345.083,875.242,345.083,875.242,348.503z"/>
</g>
</svg>
