<svg xmlns="http://www.w3.org/2000/svg" viewBox="10.5 802.5 160 160">
<g>
	<g>
		<path d="M110.041,900.384c0,0,18.525-1.824,20.916-2.158c2.019-0.289,2.594-1.151,2.446-3.248c-0.115-1.724-2.015-37-2.087-38.728
			c-0.071-1.73-0.718-2.306-2.384-2.306c-1.744,0-4.903,0.287-6.271,0.943c0.143,1.296,0.143,2.303,0.287,3.025
			c1.588-0.653,5.266-0.801,5.266-0.801l1.881,38.197h-22.212L110.041,900.384z"/>
		<path d="M121.4,848.888c0.178,3.8,0.966,18.885,1.5,29.143c0.256,4.957,0.462,8.856,0.484,9.389
			c0.004,0.062,0.007,0.116,0.007,0.159c-3.053,0.257-9.244,0.838-13.947,1.761c-2.787-6.723-7.172-17.383-8.272-20.075v-15.727
			C107.894,849.949,112.625,848.91,121.4,848.888 M121.656,845.435c-9.809,0-15.291,1.15-23.944,6.059v18.463
			c0,0,6.779,16.51,9.666,23.438c4.903-1.446,15.116-2.271,16.584-2.387c1.806-0.142,3.031-0.719,2.887-3.747
			c-0.081-1.734-1.928-36.7-2.019-39.237C124.756,846.088,123.672,845.435,121.656,845.435L121.656,845.435z"/>
		<path d="M99.946,860.435c3.319-2.747,12.766-6.929,17.597-4.479c-5.406,0.367-12.909,3.031-17.74,6.99
			C99.872,861.796,99.946,860.435,99.946,860.435z"/>
		<path d="M100.019,868.071c3.318-2.736,12.765-6.916,17.597-4.468c-5.406,0.365-12.91,3.028-17.744,6.993
			C99.946,869.443,100.019,868.071,100.019,868.071z"/>
		<path d="M100.162,875.22c3.319-2.747,12.766-6.06,17.597-3.614c-5.072,0.341-11.975,1.947-16.803,5.407
			C100.666,876.44,100.162,875.22,100.162,875.22z"/>
		<path d="M102.671,882.404c4.204-2.319,11.532-4.351,15.591-2.285c-4.375,0.29-10.128,1.534-14.722,4.094
			C103.119,883.44,102.975,883.074,102.671,882.404z"/>
	</g>
	<path d="M90.497,950.573v6.927c56.899-15.109,65.341-50.59,65.197-134.706c-8.772,2.449-16.712,3.794-24.1,3.794
		c-15.207,0-28.081-5.685-41.094-19.084l0,0c0,0,0,5.942,0,8.796c2.385,2.344,6.351,5.19,6.351,5.19
		c10.662,7.764,21.953,11.432,34.744,11.432c5.465,0,11.322-0.659,17.74-2.028c-0.197,35.607-2.328,63.413-10.668,82.759
		c-7.569,17.555-20.282,28.497-41.815,35.636L90.497,950.573z"/>
	<path d="M112.784,928.222H90.497v-5.196h22.287c1.185,0,2.132-0.473,2.735-1.394c0.881-1.338,0.906-3.378,0.072-5.336
		c-3.428-7.979-19.174-44.915-19.331-45.293l-0.209-0.48v-27.106h-5.553v-5.197h10.75v31.236
		c1.881,4.42,15.906,37.311,19.115,44.794c1.538,3.595,1.347,7.422-0.512,10.233C118.287,926.856,115.713,928.222,112.784,928.222z"
		/>
	<path d="M113.072,918.598c-0.288-0.719-12.981-30.438-12.981-30.438H90.5v7.762c0.328-0.068,0.664-0.119,1.01-0.119
		c2.427,0,4.396,1.977,4.396,4.397c0,2.438-1.969,4.399-4.396,4.399c-0.347,0-0.682-0.049-1.01-0.118v15.663c0,0,20.991,0,21.71,0
		C112.928,920.145,113.362,919.315,113.072,918.598z M93.962,914.122c-1.432,0-2.597-1.163-2.597-2.594
		c0-1.432,1.165-2.594,2.597-2.594c1.431,0,2.6,1.162,2.6,2.594C96.562,912.959,95.394,914.122,93.962,914.122z"/>
	<path d="M103.768,842.014c0,1.009-0.821,1.833-1.827,1.833H90.497v-6.059h11.444c1.006,0,1.827,0.823,1.827,1.833V842.014z"/>
</g>
<g>
	<g>
		<path d="M70.956,900.384c0,0-18.519-1.824-20.909-2.158c-2.022-0.289-2.601-1.151-2.457-3.248
			c0.119-1.727,2.022-37.003,2.094-38.728c0.072-1.73,0.722-2.306,2.378-2.306c1.744,0,4.9,0.287,6.272,0.943
			c-0.144,1.296-0.144,2.303-0.291,3.025c-1.584-0.653-5.263-0.801-5.263-0.801l-1.875,38.197h22.212L70.956,900.384z"/>
		<path d="M59.6,848.888c8.775,0.022,13.51,1.062,20.232,4.649v15.727c-1.106,2.692-5.485,13.35-8.269,20.075
			c-4.709-0.926-10.894-1.504-13.957-1.761c0.003-0.043,0.003-0.097,0.007-0.159c0.028-0.532,0.231-4.432,0.49-9.389
			C58.634,867.772,59.425,852.688,59.6,848.888 M59.35,845.435c-2.021,0-3.103,0.653-3.175,2.591
			c-0.093,2.536-1.94,37.504-2.021,39.237c-0.144,3.027,1.084,3.605,2.885,3.747c1.465,0.115,11.684,0.941,16.59,2.387
			c2.881-6.927,9.663-23.438,9.663-23.438v-18.462C74.634,846.585,69.156,845.435,59.35,845.435L59.35,845.435z"/>
		<path d="M81.053,860.435c-3.315-2.747-12.762-6.929-17.596-4.479c5.412,0.367,12.909,3.031,17.741,6.99
			C81.122,861.796,81.053,860.435,81.053,860.435z"/>
		<path d="M80.978,868.071c-3.315-2.736-12.762-6.916-17.596-4.468c5.413,0.365,12.909,3.028,17.741,6.993
			C81.053,869.443,80.978,868.071,80.978,868.071z"/>
		<path d="M80.837,875.22c-3.319-2.747-12.765-6.06-17.597-3.614c5.068,0.341,11.978,1.947,16.803,5.407
			C80.331,876.44,80.837,875.22,80.837,875.22z"/>
		<path d="M78.328,882.404c-4.197-2.319-11.524-4.351-15.593-2.285c4.384,0.29,10.131,1.534,14.725,4.094
			C77.881,883.44,78.028,883.074,78.328,882.404z"/>
	</g>
	<path d="M90.788,928.222H68.216c-2.928,0-5.5-1.365-7.066-3.736c-1.862-2.811-2.047-6.639-0.509-10.232
		c3.203-7.484,17.234-40.375,19.116-44.794v-31.24H90.5v5.193h-5.55v27.106l-0.209,0.482c-0.159,0.378-15.906,37.312-19.328,45.293
		c-0.841,1.956-0.81,3.997,0.072,5.335c0.603,0.92,1.549,1.393,2.731,1.393h22.572V928.222z"/>
	<path d="M87.112,900.2c0-2.179,1.591-3.997,3.675-4.334v-7.709h-9.878c0,0-12.693,29.718-12.981,30.437
		c-0.29,0.72,0.145,1.548,0.869,1.548c0.718,0,21.991,0,21.991,0l0.01-15.598C88.709,904.209,87.112,902.388,87.112,900.2z
		 M81.556,911.528c-1.869,0-3.384-1.521-3.384-3.395c0-1.867,1.515-3.387,3.384-3.387c1.875,0,3.39,1.52,3.39,3.387
		C84.946,910.007,83.431,911.528,81.556,911.528z"/>
	<path d="M90.788,843.847H79.056c-1.006,0-1.828-0.824-1.828-1.833v-2.395c0-1.011,0.821-1.835,1.828-1.835h11.731V843.847z"/>
	<path d="M84.156,949.288c-21.535-7.139-34.25-18.081-41.815-35.636C34,894.307,31.869,866.497,31.666,830.894
		c6.422,1.369,12.278,2.028,17.737,2.028c12.797,0,24.084-3.668,34.75-11.432c0,0,3.969-2.847,6.341-5.19
		c0-0.49,1.737,0.325,1.737,0.325v-6.638l-1.734-2.487l0,0c-13.003,13.399-25.879,19.084-41.091,19.084
		c-7.388,0-15.322-1.343-24.1-3.794C25.159,906.91,33.6,942.391,90.497,957.5l1.737-0.684v-6.061l-1.737-0.183L84.156,949.288z"/>
</g>
</svg>
